<?xml version="1.0" encoding="UTF-8"?>
<svg xmlns="http://www.w3.org/2000/svg" xmlns:xlink="http://www.w3.org/1999/xlink" width="1200pt" height="1200pt" viewBox="0 0 1200 1200" version="1.1">
<g id="surface1">
<rect x="0" y="0" width="1200" height="1200" style="fill:rgb(100%,100%,100%);fill-opacity:1;stroke:none;"/>
<path style=" stroke:none;fill-rule:nonzero;fill:rgb(0.799561%,0.799561%,0.799561%);fill-opacity:1;" d="M 55.1875 1122.851563 C 55.335938 1123.070313 55.492188 1123.300781 55.664063 1123.550781 C 55.832031 1123.800781 55.984375 1124.058594 56.117188 1124.351563 C 56.25 1124.628906 56.363281 1124.929688 56.449219 1125.25 C 56.539063 1125.558594 56.582031 1125.898438 56.582031 1126.269531 C 56.582031 1126.820313 56.476563 1127.351563 56.269531 1127.871094 C 56.058594 1128.390625 55.765625 1128.859375 55.390625 1129.269531 C 55.015625 1129.691406 54.558594 1130.019531 54.027344 1130.269531 C 53.496094 1130.519531 52.90625 1130.648438 52.261719 1130.648438 C 51.804688 1130.648438 51.351563 1130.582031 50.910156 1130.441406 C 50.464844 1130.308594 50.039063 1130.121094 49.636719 1129.878906 L 50.425781 1128.570313 C 51.015625 1128.941406 51.640625 1129.128906 52.300781 1129.128906 C 52.730469 1129.128906 53.121094 1129.039063 53.460938 1128.871094 C 53.804688 1128.691406 54.09375 1128.46875 54.332031 1128.179688 C 54.566406 1127.898438 54.746094 1127.589844 54.875 1127.238281 C 55.003906 1126.898438 55.066406 1126.558594 55.066406 1126.21875 C 55.066406 1125.621094 54.886719 1125.050781 54.523438 1124.53125 L 50.890625 1119.359375 C 50.539063 1118.859375 50.363281 1118.351563 50.363281 1117.808594 C 50.363281 1117.511719 50.429688 1117.21875 50.566406 1116.929688 C 50.699219 1116.640625 50.886719 1116.378906 51.121094 1116.148438 C 51.355469 1115.917969 51.625 1115.738281 51.929688 1115.609375 C 52.230469 1115.46875 52.542969 1115.398438 52.867188 1115.398438 C 53.40625 1115.398438 53.898438 1115.539063 54.339844 1115.808594 L 53.554688 1117.101563 C 53.460938 1117.03125 53.355469 1116.988281 53.238281 1116.960938 C 53.125 1116.929688 53.015625 1116.917969 52.90625 1116.917969 C 52.679688 1116.917969 52.453125 1117.011719 52.230469 1117.199219 C 52.007813 1117.390625 51.898438 1117.621094 51.898438 1117.890625 C 51.898438 1117.980469 51.917969 1118.082031 51.960938 1118.179688 C 52 1118.28125 52.054688 1118.378906 52.121094 1118.46875 L 55.1875 1122.851563 "/>
<path style=" stroke:none;fill-rule:nonzero;fill:rgb(0.799561%,0.799561%,0.799561%);fill-opacity:1;" d="M 62.484375 1130.210938 C 61.753906 1129.917969 61.101563 1129.519531 60.527344 1129.011719 C 59.957031 1128.5 59.480469 1127.898438 59.105469 1127.199219 C 58.726563 1126.511719 58.492188 1125.761719 58.398438 1124.949219 L 57.550781 1124.949219 L 57.550781 1123.417969 L 58.398438 1123.417969 C 58.492188 1122.621094 58.726563 1121.878906 59.105469 1121.191406 C 59.480469 1120.5 59.960938 1119.890625 60.539063 1119.378906 C 61.117188 1118.871094 61.773438 1118.46875 62.507813 1118.167969 C 63.238281 1117.871094 64.011719 1117.730469 64.820313 1117.730469 L 64.820313 1119.238281 C 64.214844 1119.238281 63.632813 1119.351563 63.082031 1119.558594 C 62.53125 1119.78125 62.039063 1120.070313 61.609375 1120.441406 C 61.175781 1120.808594 60.816406 1121.25 60.527344 1121.761719 C 60.238281 1122.269531 60.046875 1122.832031 59.953125 1123.417969 L 64.113281 1123.417969 L 64.113281 1124.949219 L 59.953125 1124.949219 C 60.046875 1125.550781 60.234375 1126.089844 60.519531 1126.601563 C 60.800781 1127.101563 61.160156 1127.539063 61.597656 1127.910156 C 62.035156 1128.28125 62.527344 1128.570313 63.074219 1128.789063 C 63.617188 1129 64.199219 1129.109375 64.820313 1129.109375 L 64.820313 1130.648438 C 63.996094 1130.648438 63.21875 1130.5 62.484375 1130.210938 "/>
<path style=" stroke:none;fill-rule:nonzero;fill:rgb(0.799561%,0.799561%,0.799561%);fill-opacity:1;" d="M 68.875 1119.261719 L 68.875 1130.648438 L 67.363281 1130.648438 L 67.363281 1119.261719 L 65.789063 1119.261719 L 65.789063 1117.730469 L 70.449219 1117.730469 L 70.449219 1119.261719 L 68.875 1119.261719 "/>
<path style=" stroke:none;fill-rule:nonzero;fill:rgb(0.799561%,0.799561%,0.799561%);fill-opacity:1;" d="M 74.507813 1119.261719 L 74.507813 1130.648438 L 72.996094 1130.648438 L 72.996094 1119.261719 L 71.417969 1119.261719 L 71.417969 1117.730469 L 76.082031 1117.730469 L 76.082031 1119.261719 L 74.507813 1119.261719 "/>
<path style=" stroke:none;fill-rule:nonzero;fill:rgb(0.799561%,0.799561%,0.799561%);fill-opacity:1;" d="M 77.050781 1130.648438 L 77.050781 1117.730469 L 78.566406 1117.730469 L 78.566406 1130.648438 L 77.050781 1130.648438 "/>
<path style=" stroke:none;fill-rule:nonzero;fill:rgb(0.799561%,0.799561%,0.799561%);fill-opacity:1;" d="M 85.167969 1130.648438 L 85.167969 1124.191406 C 85.167969 1123.589844 85.0625 1123.03125 84.855469 1122.480469 C 84.644531 1121.929688 84.359375 1121.441406 83.996094 1121.011719 C 83.632813 1120.570313 83.199219 1120.199219 82.695313 1119.910156 C 82.191406 1119.609375 81.640625 1119.417969 81.050781 1119.320313 L 81.050781 1130.648438 L 79.535156 1130.648438 L 79.535156 1117.730469 L 80.300781 1117.730469 C 81.175781 1117.730469 82 1117.898438 82.773438 1118.238281 C 83.546875 1118.582031 84.230469 1119.050781 84.8125 1119.628906 C 85.398438 1120.21875 85.859375 1120.898438 86.195313 1121.691406 C 86.53125 1122.480469 86.699219 1123.308594 86.699219 1124.191406 L 86.699219 1130.648438 L 85.167969 1130.648438 "/>
<path style=" stroke:none;fill-rule:nonzero;fill:rgb(0.799561%,0.799561%,0.799561%);fill-opacity:1;" d="M 94.128906 1130.648438 C 93.242188 1130.648438 92.40625 1130.46875 91.628906 1130.128906 C 90.847656 1129.789063 90.164063 1129.320313 89.578125 1128.738281 C 88.992188 1128.148438 88.527344 1127.46875 88.183594 1126.691406 C 87.84375 1125.910156 87.667969 1125.070313 87.667969 1124.191406 C 87.667969 1123.308594 87.84375 1122.480469 88.183594 1121.691406 C 88.527344 1120.898438 88.992188 1120.21875 89.578125 1119.628906 C 90.164063 1119.050781 90.847656 1118.582031 91.628906 1118.238281 C 92.40625 1117.898438 93.242188 1117.730469 94.128906 1117.730469 L 94.128906 1119.238281 C 93.457031 1119.238281 92.820313 1119.371094 92.222656 1119.628906 C 91.625 1119.898438 91.097656 1120.25 90.648438 1120.699219 C 90.195313 1121.148438 89.839844 1121.679688 89.578125 1122.28125 C 89.316406 1122.878906 89.183594 1123.511719 89.183594 1124.191406 C 89.183594 1124.800781 89.289063 1125.390625 89.496094 1125.929688 C 89.707031 1126.480469 90 1126.960938 90.375 1127.398438 C 90.753906 1127.832031 91.195313 1128.191406 91.707031 1128.488281 C 92.21875 1128.78125 92.769531 1128.980469 93.363281 1129.070313 L 93.363281 1127.011719 L 91.789063 1127.011719 L 91.789063 1125.480469 L 94.898438 1125.480469 L 94.898438 1130.648438 L 94.128906 1130.648438 "/>
<path style=" stroke:none;fill-rule:nonzero;fill:rgb(0.799561%,0.799561%,0.799561%);fill-opacity:1;" d="M 110.28125 1125.179688 C 109.835938 1124.800781 109.359375 1124.519531 108.847656 1124.351563 C 108.335938 1124.167969 107.796875 1124.082031 107.234375 1124.082031 C 106.949219 1124.082031 106.671875 1124.109375 106.394531 1124.160156 C 106.117188 1124.199219 105.847656 1124.28125 105.578125 1124.390625 L 105.03125 1122.96875 C 105.394531 1122.839844 105.761719 1122.738281 106.132813 1122.660156 C 106.503906 1122.589844 106.882813 1122.550781 107.273438 1122.550781 C 108.121094 1122.550781 108.925781 1122.71875 109.683594 1123.050781 C 110.445313 1123.390625 111.113281 1123.851563 111.683594 1124.429688 C 112.257813 1125.011719 112.710938 1125.679688 113.046875 1126.441406 C 113.382813 1127.199219 113.550781 1128 113.550781 1128.851563 C 113.550781 1129.148438 113.53125 1129.441406 113.492188 1129.75 C 113.449219 1130.050781 113.382813 1130.351563 113.289063 1130.648438 L 111.675781 1130.648438 C 111.796875 1130.339844 111.882813 1130.039063 111.9375 1129.75 C 111.988281 1129.460938 112.015625 1129.148438 112.015625 1128.832031 C 112.015625 1128.101563 111.867188 1127.417969 111.574219 1126.789063 C 111.398438 1127.339844 111.144531 1127.851563 110.816406 1128.308594 C 110.484375 1128.78125 110.09375 1129.191406 109.636719 1129.539063 C 109.175781 1129.890625 108.671875 1130.160156 108.121094 1130.351563 C 107.570313 1130.550781 106.984375 1130.648438 106.363281 1130.648438 C 105.609375 1130.648438 104.902344 1130.5 104.246094 1130.210938 C 103.585938 1129.917969 103.007813 1129.53125 102.519531 1129.039063 C 102.027344 1128.550781 101.636719 1127.96875 101.347656 1127.308594 C 101.058594 1126.660156 100.914063 1125.949219 100.914063 1125.21875 C 100.914063 1124.660156 100.992188 1124.128906 101.15625 1123.628906 C 101.316406 1123.128906 101.539063 1122.660156 101.820313 1122.230469 C 102.105469 1121.800781 102.441406 1121.410156 102.832031 1121.082031 C 103.222656 1120.738281 103.652344 1120.460938 104.121094 1120.25 C 103.910156 1119.988281 103.738281 1119.699219 103.609375 1119.378906 C 103.480469 1119.058594 103.417969 1118.710938 103.417969 1118.332031 C 103.417969 1117.929688 103.496094 1117.550781 103.648438 1117.191406 C 103.804688 1116.832031 104.011719 1116.519531 104.273438 1116.25 C 104.535156 1115.980469 104.851563 1115.769531 105.214844 1115.621094 C 105.578125 1115.460938 105.960938 1115.378906 106.363281 1115.378906 C 106.769531 1115.378906 107.148438 1115.460938 107.503906 1115.621094 C 107.859375 1115.769531 108.175781 1115.980469 108.445313 1116.25 C 108.710938 1116.519531 108.925781 1116.832031 109.078125 1117.191406 C 109.234375 1117.550781 109.3125 1117.929688 109.3125 1118.332031 L 107.777344 1118.332031 C 107.777344 1117.941406 107.640625 1117.609375 107.363281 1117.332031 C 107.089844 1117.058594 106.753906 1116.917969 106.363281 1116.917969 C 105.972656 1116.917969 105.636719 1117.058594 105.355469 1117.332031 C 105.074219 1117.609375 104.933594 1117.941406 104.933594 1118.332031 C 104.933594 1118.71875 105.074219 1119.058594 105.355469 1119.339844 C 105.636719 1119.621094 105.972656 1119.761719 106.363281 1119.761719 L 106.363281 1121.300781 C 105.824219 1121.300781 105.320313 1121.398438 104.851563 1121.609375 C 104.378906 1121.820313 103.964844 1122.101563 103.609375 1122.460938 C 103.253906 1122.820313 102.96875 1123.230469 102.761719 1123.699219 C 102.550781 1124.167969 102.445313 1124.679688 102.445313 1125.21875 C 102.445313 1125.738281 102.550781 1126.238281 102.761719 1126.710938 C 102.96875 1127.179688 103.246094 1127.601563 103.597656 1127.960938 C 103.949219 1128.320313 104.363281 1128.609375 104.839844 1128.820313 C 105.316406 1129.03125 105.824219 1129.128906 106.363281 1129.128906 C 106.902344 1129.128906 107.410156 1129.03125 107.890625 1128.820313 C 108.367188 1128.609375 108.78125 1128.320313 109.128906 1127.960938 C 109.480469 1127.601563 109.761719 1127.179688 109.96875 1126.699219 C 110.175781 1126.21875 110.28125 1125.710938 110.28125 1125.179688 "/>
<path style=" stroke:none;fill-rule:nonzero;fill:rgb(0.799561%,0.799561%,0.799561%);fill-opacity:1;" d="M 125.117188 1122.851563 C 125.265625 1123.070313 125.425781 1123.300781 125.59375 1123.550781 C 125.761719 1123.800781 125.914063 1124.058594 126.046875 1124.351563 C 126.183594 1124.628906 126.292969 1124.929688 126.378906 1125.25 C 126.46875 1125.558594 126.511719 1125.898438 126.511719 1126.269531 C 126.511719 1126.820313 126.40625 1127.351563 126.199219 1127.871094 C 125.988281 1128.390625 125.699219 1128.859375 125.320313 1129.269531 C 124.945313 1129.691406 124.488281 1130.019531 123.960938 1130.269531 C 123.425781 1130.519531 122.839844 1130.648438 122.191406 1130.648438 C 121.734375 1130.648438 121.28125 1130.582031 120.839844 1130.441406 C 120.394531 1130.308594 119.972656 1130.121094 119.566406 1129.878906 L 120.355469 1128.570313 C 120.945313 1128.941406 121.570313 1129.128906 122.230469 1129.128906 C 122.664063 1129.128906 123.050781 1129.039063 123.390625 1128.871094 C 123.734375 1128.691406 124.023438 1128.46875 124.261719 1128.179688 C 124.496094 1127.898438 124.679688 1127.589844 124.804688 1127.238281 C 124.933594 1126.898438 124.996094 1126.558594 124.996094 1126.21875 C 124.996094 1125.621094 124.816406 1125.050781 124.453125 1124.53125 L 120.816406 1119.359375 C 120.46875 1118.859375 120.292969 1118.351563 120.292969 1117.808594 C 120.292969 1117.511719 120.363281 1117.21875 120.496094 1116.929688 C 120.628906 1116.640625 120.816406 1116.378906 121.050781 1116.148438 C 121.285156 1115.917969 121.554688 1115.738281 121.859375 1115.609375 C 122.160156 1115.46875 122.476563 1115.398438 122.796875 1115.398438 C 123.335938 1115.398438 123.828125 1115.539063 124.269531 1115.808594 L 123.484375 1117.101563 C 123.390625 1117.03125 123.285156 1116.988281 123.171875 1116.960938 C 123.054688 1116.929688 122.945313 1116.917969 122.839844 1116.917969 C 122.609375 1116.917969 122.382813 1117.011719 122.160156 1117.199219 C 121.9375 1117.390625 121.828125 1117.621094 121.828125 1117.890625 C 121.828125 1117.980469 121.847656 1118.082031 121.890625 1118.179688 C 121.929688 1118.28125 121.984375 1118.378906 122.050781 1118.46875 L 125.117188 1122.851563 "/>
<path style=" stroke:none;fill-rule:nonzero;fill:rgb(0.799561%,0.799561%,0.799561%);fill-opacity:1;" d="M 132.953125 1119.890625 C 131.96875 1120.460938 131.152344 1121.21875 130.496094 1122.160156 C 129.847656 1123.089844 129.40625 1124.109375 129.175781 1125.21875 L 132.953125 1125.21875 Z M 134.464844 1126.730469 L 134.464844 1130.648438 L 132.953125 1130.648438 L 132.953125 1126.730469 L 128.996094 1126.730469 L 128.996094 1130.648438 L 127.480469 1130.648438 L 127.480469 1126.832031 C 127.480469 1125.859375 127.628906 1124.910156 127.925781 1123.96875 C 128.21875 1123.039063 128.660156 1122.160156 129.246094 1121.351563 C 129.832031 1120.53125 130.558594 1119.800781 131.425781 1119.140625 C 132.296875 1118.480469 133.308594 1117.929688 134.464844 1117.5 L 134.464844 1125.21875 L 135.070313 1125.21875 L 135.070313 1126.730469 L 134.464844 1126.730469 "/>
<path style=" stroke:none;fill-rule:nonzero;fill:rgb(0.799561%,0.799561%,0.799561%);fill-opacity:1;" d="M 141.128906 1126 C 141.128906 1125.640625 141.070313 1125.300781 140.957031 1124.96875 C 140.84375 1124.648438 140.675781 1124.351563 140.460938 1124.082031 C 140.246094 1123.820313 139.992188 1123.582031 139.703125 1123.390625 C 139.414063 1123.191406 139.101563 1123.050781 138.765625 1122.96875 L 138.765625 1129.070313 C 139.101563 1128.980469 139.414063 1128.832031 139.703125 1128.640625 C 139.992188 1128.441406 140.246094 1128.210938 140.460938 1127.929688 C 140.675781 1127.648438 140.84375 1127.351563 140.957031 1127.03125 C 141.070313 1126.710938 141.128906 1126.371094 141.128906 1126 Z M 138.765625 1120.890625 C 138.929688 1120.71875 139.007813 1120.5 139.007813 1120.230469 C 139.007813 1120 138.929688 1119.789063 138.765625 1119.601563 Z M 142.640625 1126 C 142.640625 1126.640625 142.519531 1127.230469 142.277344 1127.800781 C 142.035156 1128.359375 141.707031 1128.859375 141.289063 1129.28125 C 140.871094 1129.710938 140.382813 1130.050781 139.816406 1130.300781 C 139.25 1130.558594 138.652344 1130.691406 138.019531 1130.691406 L 137.230469 1130.691406 L 137.230469 1122.96875 C 137.136719 1123 137.046875 1123.03125 136.960938 1123.070313 C 136.871094 1123.101563 136.78125 1123.140625 136.6875 1123.179688 L 136.039063 1121.800781 C 136.230469 1121.710938 136.425781 1121.628906 136.628906 1121.570313 C 136.828125 1121.511719 137.03125 1121.460938 137.230469 1121.417969 L 137.230469 1117.730469 L 138 1117.730469 C 138.335938 1117.730469 138.65625 1117.789063 138.96875 1117.929688 C 139.277344 1118.058594 139.546875 1118.238281 139.773438 1118.46875 C 140.003906 1118.699219 140.1875 1118.96875 140.320313 1119.28125 C 140.453125 1119.589844 140.523438 1119.910156 140.523438 1120.25 C 140.523438 1120.550781 140.476563 1120.820313 140.382813 1121.089844 C 140.285156 1121.351563 140.160156 1121.589844 139.996094 1121.800781 C 140.402344 1121.988281 140.765625 1122.230469 141.089844 1122.519531 C 141.410156 1122.808594 141.6875 1123.140625 141.914063 1123.511719 C 142.144531 1123.878906 142.320313 1124.28125 142.449219 1124.699219 C 142.578125 1125.121094 142.640625 1125.558594 142.640625 1126 "/>
<path style=" stroke:none;fill-rule:nonzero;fill:rgb(0.799561%,0.799561%,0.799561%);fill-opacity:1;" d="M 143.609375 1130.648438 L 143.609375 1117.730469 L 145.125 1117.730469 L 145.125 1129.109375 L 147.851563 1129.109375 L 147.851563 1130.648438 L 143.609375 1130.648438 "/>
<path style=" stroke:none;fill-rule:nonzero;fill:rgb(0.799561%,0.799561%,0.799561%);fill-opacity:1;" d="M 158.570313 1124.191406 C 158.570313 1123.511719 158.4375 1122.878906 158.175781 1122.28125 C 157.914063 1121.679688 157.558594 1121.148438 157.105469 1120.699219 C 156.65625 1120.25 156.132813 1119.898438 155.53125 1119.628906 C 154.933594 1119.371094 154.296875 1119.238281 153.625 1119.238281 C 152.953125 1119.238281 152.316406 1119.371094 151.71875 1119.628906 C 151.117188 1119.898438 150.597656 1120.25 150.152344 1120.699219 C 149.707031 1121.148438 149.355469 1121.679688 149.09375 1122.28125 C 148.828125 1122.878906 148.699219 1123.511719 148.699219 1124.191406 C 148.699219 1124.859375 148.828125 1125.488281 149.09375 1126.089844 C 149.355469 1126.691406 149.707031 1127.210938 150.152344 1127.660156 C 150.597656 1128.101563 151.117188 1128.460938 151.71875 1128.71875 C 152.316406 1128.980469 152.953125 1129.109375 153.625 1129.109375 C 154.296875 1129.109375 154.933594 1128.980469 155.53125 1128.71875 C 156.132813 1128.460938 156.65625 1128.101563 157.105469 1127.660156 C 157.558594 1127.210938 157.914063 1126.691406 158.175781 1126.089844 C 158.4375 1125.488281 158.570313 1124.859375 158.570313 1124.191406 Z M 160.085938 1124.191406 C 160.085938 1125.070313 159.914063 1125.910156 159.570313 1126.691406 C 159.226563 1127.46875 158.761719 1128.148438 158.175781 1128.738281 C 157.589844 1129.320313 156.90625 1129.789063 156.117188 1130.128906 C 155.328125 1130.46875 154.5 1130.648438 153.625 1130.648438 C 152.734375 1130.648438 151.902344 1130.480469 151.121094 1130.140625 C 150.339844 1129.800781 149.65625 1129.339844 149.070313 1128.761719 C 148.484375 1128.167969 148.023438 1127.488281 147.679688 1126.699219 C 147.335938 1125.910156 147.164063 1125.070313 147.164063 1124.191406 C 147.164063 1123.308594 147.335938 1122.480469 147.679688 1121.691406 C 148.023438 1120.898438 148.484375 1120.21875 149.070313 1119.628906 C 149.65625 1119.050781 150.339844 1118.582031 151.121094 1118.238281 C 151.902344 1117.898438 152.734375 1117.730469 153.625 1117.730469 C 154.484375 1117.730469 155.304688 1117.898438 156.085938 1118.238281 C 156.867188 1118.582031 157.554688 1119.050781 158.144531 1119.628906 C 158.738281 1120.21875 159.210938 1120.898438 159.558594 1121.679688 C 159.910156 1122.460938 160.085938 1123.300781 160.085938 1124.191406 "/>
<path style=" stroke:none;fill-rule:nonzero;fill:rgb(0.799561%,0.799561%,0.799561%);fill-opacity:1;" d="M 166.6875 1130.648438 L 166.6875 1124.191406 C 166.6875 1123.589844 166.582031 1123.03125 166.371094 1122.480469 C 166.164063 1121.929688 165.878906 1121.441406 165.515625 1121.011719 C 165.152344 1120.570313 164.71875 1120.199219 164.214844 1119.910156 C 163.707031 1119.609375 163.160156 1119.417969 162.566406 1119.320313 L 162.566406 1130.648438 L 161.054688 1130.648438 L 161.054688 1117.730469 L 161.820313 1117.730469 C 162.695313 1117.730469 163.519531 1117.898438 164.292969 1118.238281 C 165.066406 1118.582031 165.746094 1119.050781 166.332031 1119.628906 C 166.917969 1120.21875 167.378906 1120.898438 167.714844 1121.691406 C 168.050781 1122.480469 168.21875 1123.308594 168.21875 1124.191406 L 168.21875 1130.648438 L 166.6875 1130.648438 "/>
<path style=" stroke:none;fill-rule:nonzero;fill:rgb(0.799561%,0.799561%,0.799561%);fill-opacity:1;" d="M 52.054688 1148.429688 L 52.054688 1151.308594 L 50.671875 1151.308594 L 50.671875 1148.429688 L 47.890625 1148.429688 L 47.890625 1147.011719 L 50.671875 1147.011719 L 50.671875 1144.148438 L 52.054688 1144.148438 L 52.054688 1147.011719 L 54.851563 1147.011719 L 54.851563 1148.429688 L 52.054688 1148.429688 "/>
<path style=" stroke:none;fill-rule:nonzero;fill:rgb(0.799561%,0.799561%,0.799561%);fill-opacity:1;" d="M 63.804688 1151.839844 C 64.109375 1151.261719 64.265625 1150.660156 64.265625 1150.019531 C 64.265625 1149.570313 64.183594 1149.121094 64.015625 1148.679688 C 63.851563 1148.238281 63.609375 1147.839844 63.296875 1147.5 C 62.984375 1147.160156 62.605469 1146.878906 62.164063 1146.667969 C 61.722656 1146.449219 61.230469 1146.351563 60.691406 1146.351563 C 60.25 1146.351563 59.8125 1146.429688 59.382813 1146.601563 C 58.953125 1146.769531 58.574219 1147.019531 58.242188 1147.332031 C 57.910156 1147.648438 57.640625 1148.03125 57.429688 1148.488281 C 57.222656 1148.941406 57.117188 1149.460938 57.117188 1150.039063 C 57.117188 1150.609375 57.222656 1151.121094 57.429688 1151.582031 C 57.640625 1152.03125 57.914063 1152.417969 58.25 1152.730469 C 58.589844 1153.039063 58.96875 1153.269531 59.394531 1153.441406 C 59.816406 1153.601563 60.238281 1153.679688 60.65625 1153.679688 C 61.292969 1153.679688 61.890625 1153.53125 62.449219 1153.230469 C 63.007813 1152.917969 63.460938 1152.460938 63.804688 1151.839844 Z M 65 1152.539063 C 64.546875 1153.378906 63.929688 1154.011719 63.152344 1154.449219 C 62.371094 1154.890625 61.550781 1155.101563 60.691406 1155.101563 C 59.96875 1155.101563 59.300781 1154.960938 58.695313 1154.667969 C 58.085938 1154.378906 57.5625 1154 57.128906 1153.519531 C 56.691406 1153.050781 56.351563 1152.5 56.105469 1151.890625 C 55.859375 1151.28125 55.738281 1150.640625 55.738281 1149.988281 C 55.738281 1149.558594 55.789063 1149.128906 55.894531 1148.71875 C 55.996094 1148.300781 56.160156 1147.890625 56.382813 1147.480469 L 60.230469 1140.570313 L 61.832031 1140.570313 L 59.308594 1145.121094 C 59.554688 1145.039063 59.792969 1144.988281 60.027344 1144.949219 C 60.261719 1144.917969 60.496094 1144.910156 60.726563 1144.910156 C 61.414063 1144.910156 62.058594 1145.050781 62.664063 1145.332031 C 63.265625 1145.621094 63.785156 1146 64.226563 1146.480469 C 64.667969 1146.960938 65.019531 1147.511719 65.277344 1148.128906 C 65.535156 1148.75 65.664063 1149.390625 65.664063 1150.039063 C 65.664063 1150.449219 65.613281 1150.859375 65.515625 1151.28125 C 65.417969 1151.710938 65.246094 1152.128906 65 1152.539063 "/>
<path style=" stroke:none;fill-rule:nonzero;fill:rgb(0.799561%,0.799561%,0.799561%);fill-opacity:1;" d="M 66.546875 1154.898438 L 71.007813 1149.871094 C 71.238281 1149.609375 71.464844 1149.320313 71.6875 1149.011719 C 71.90625 1148.699219 72.101563 1148.378906 72.269531 1148.039063 C 72.433594 1147.710938 72.566406 1147.359375 72.664063 1147.011719 C 72.761719 1146.660156 72.8125 1146.300781 72.8125 1145.929688 C 72.8125 1145.21875 72.648438 1144.621094 72.324219 1144.121094 C 71.996094 1143.621094 71.585938 1143.21875 71.089844 1142.910156 C 70.589844 1142.601563 70.042969 1142.371094 69.441406 1142.21875 C 68.839844 1142.082031 68.261719 1142.011719 67.710938 1142.011719 L 67.710938 1140.570313 C 68.496094 1140.570313 69.277344 1140.679688 70.058594 1140.917969 C 70.835938 1141.148438 71.535156 1141.488281 72.148438 1141.941406 C 72.761719 1142.390625 73.257813 1142.941406 73.640625 1143.609375 C 74.019531 1144.269531 74.210938 1145.039063 74.210938 1145.910156 C 74.210938 1146.820313 74 1147.699219 73.574219 1148.550781 C 73.152344 1149.390625 72.640625 1150.160156 72.035156 1150.839844 L 69.699219 1153.46875 L 73.785156 1153.46875 L 73.785156 1154.898438 L 66.546875 1154.898438 "/>
<path style=" stroke:none;fill-rule:nonzero;fill:rgb(0.799561%,0.799561%,0.799561%);fill-opacity:1;" d="M 85.960938 1143.332031 C 85.960938 1142.96875 85.832031 1142.648438 85.574219 1142.390625 C 85.316406 1142.140625 85.011719 1142.011719 84.652344 1142.011719 C 84.308594 1142.011719 84.007813 1142.140625 83.75 1142.390625 C 83.492188 1142.648438 83.363281 1142.96875 83.363281 1143.332031 C 83.363281 1143.699219 83.492188 1144.019531 83.75 1144.28125 C 84.007813 1144.550781 84.308594 1144.679688 84.652344 1144.679688 C 85.011719 1144.679688 85.316406 1144.550781 85.574219 1144.28125 C 85.832031 1144.019531 85.960938 1143.699219 85.960938 1143.332031 Z M 88.226563 1149.800781 C 88.226563 1149.289063 88.132813 1148.820313 87.941406 1148.378906 C 87.75 1147.929688 87.492188 1147.539063 87.167969 1147.210938 C 86.84375 1146.878906 86.464844 1146.609375 86.035156 1146.410156 C 85.605469 1146.21875 85.144531 1146.121094 84.652344 1146.121094 C 84.175781 1146.121094 83.71875 1146.21875 83.28125 1146.410156 C 82.84375 1146.609375 82.46875 1146.878906 82.148438 1147.210938 C 81.828125 1147.539063 81.574219 1147.941406 81.386719 1148.378906 C 81.195313 1148.832031 81.097656 1149.300781 81.097656 1149.800781 C 81.097656 1150.289063 81.191406 1150.761719 81.375 1151.199219 C 81.558594 1151.640625 81.816406 1152.03125 82.140625 1152.378906 C 82.464844 1152.71875 82.84375 1152.980469 83.273438 1153.179688 C 83.703125 1153.378906 84.164063 1153.46875 84.652344 1153.46875 C 85.144531 1153.46875 85.605469 1153.378906 86.035156 1153.179688 C 86.464844 1152.980469 86.84375 1152.71875 87.167969 1152.378906 C 87.492188 1152.03125 87.75 1151.640625 87.941406 1151.199219 C 88.132813 1150.761719 88.226563 1150.289063 88.226563 1149.800781 Z M 89.628906 1149.800781 C 89.628906 1150.488281 89.496094 1151.148438 89.230469 1151.769531 C 88.96875 1152.390625 88.609375 1152.929688 88.164063 1153.390625 C 87.714844 1153.851563 87.1875 1154.21875 86.578125 1154.488281 C 85.96875 1154.761719 85.328125 1154.898438 84.652344 1154.898438 C 83.976563 1154.898438 83.339844 1154.761719 82.738281 1154.488281 C 82.136719 1154.21875 81.613281 1153.851563 81.164063 1153.390625 C 80.714844 1152.929688 80.359375 1152.390625 80.09375 1151.769531 C 79.832031 1151.148438 79.699219 1150.488281 79.699219 1149.800781 C 79.699219 1149.28125 79.769531 1148.78125 79.910156 1148.308594 C 80.050781 1147.832031 80.253906 1147.398438 80.511719 1146.988281 C 80.769531 1146.589844 81.074219 1146.230469 81.429688 1145.910156 C 81.785156 1145.601563 82.179688 1145.339844 82.609375 1145.128906 C 82.414063 1144.890625 82.257813 1144.621094 82.140625 1144.320313 C 82.023438 1144.019531 81.964844 1143.691406 81.964844 1143.332031 C 81.964844 1142.949219 82.035156 1142.601563 82.175781 1142.261719 C 82.316406 1141.929688 82.511719 1141.628906 82.757813 1141.378906 C 83.003906 1141.128906 83.289063 1140.929688 83.613281 1140.78125 C 83.9375 1140.640625 84.285156 1140.570313 84.652344 1140.570313 C 85.023438 1140.570313 85.371094 1140.640625 85.703125 1140.78125 C 86.035156 1140.929688 86.324219 1141.128906 86.570313 1141.378906 C 86.816406 1141.628906 87.007813 1141.929688 87.148438 1142.261719 C 87.289063 1142.601563 87.359375 1142.949219 87.359375 1143.332031 C 87.359375 1143.691406 87.304688 1144.019531 87.1875 1144.320313 C 87.070313 1144.621094 86.914063 1144.890625 86.71875 1145.128906 C 87.148438 1145.339844 87.539063 1145.601563 87.894531 1145.910156 C 88.25 1146.230469 88.558594 1146.589844 88.816406 1146.988281 C 89.074219 1147.398438 89.273438 1147.832031 89.414063 1148.308594 C 89.554688 1148.78125 89.628906 1149.28125 89.628906 1149.800781 "/>
<path style=" stroke:none;fill-rule:nonzero;fill:rgb(0.799561%,0.799561%,0.799561%);fill-opacity:1;" d="M 96.460938 1149.800781 C 96.460938 1150.480469 96.328125 1151.128906 96.0625 1151.75 C 95.800781 1152.371094 95.441406 1152.910156 94.988281 1153.378906 C 94.53125 1153.851563 94 1154.21875 93.394531 1154.488281 C 92.785156 1154.761719 92.144531 1154.898438 91.46875 1154.898438 L 90.511719 1154.898438 L 90.511719 1153.46875 L 91.449219 1153.46875 C 91.941406 1153.46875 92.40625 1153.378906 92.839844 1153.179688 C 93.277344 1152.980469 93.660156 1152.71875 93.992188 1152.378906 C 94.324219 1152.050781 94.585938 1151.660156 94.773438 1151.210938 C 94.964844 1150.761719 95.058594 1150.289063 95.058594 1149.800781 C 95.058594 1149.289063 94.964844 1148.820313 94.773438 1148.378906 C 94.585938 1147.929688 94.328125 1147.539063 94 1147.210938 C 93.675781 1146.878906 93.296875 1146.609375 92.867188 1146.410156 C 92.4375 1146.21875 91.976563 1146.121094 91.488281 1146.121094 L 90.585938 1146.121094 L 92.058594 1140.570313 L 96.054688 1140.570313 L 96.054688 1142.011719 L 93.109375 1142.011719 L 92.371094 1144.75 C 92.949219 1144.871094 93.484375 1145.082031 93.984375 1145.390625 C 94.480469 1145.699219 94.914063 1146.082031 95.28125 1146.539063 C 95.648438 1146.988281 95.9375 1147.5 96.148438 1148.050781 C 96.355469 1148.609375 96.460938 1149.191406 96.460938 1149.800781 "/>
<path style=" stroke:none;fill-rule:nonzero;fill:rgb(0.799561%,0.799561%,0.799561%);fill-opacity:1;" d="M 98.855469 1154.898438 L 97.34375 1154.898438 L 102.574219 1142.011719 L 98.226563 1142.011719 L 98.226563 1140.570313 L 104.675781 1140.570313 L 98.855469 1154.898438 "/>
<path style=" stroke:none;fill-rule:nonzero;fill:rgb(0.799561%,0.799561%,0.799561%);fill-opacity:1;" d="M 112.023438 1154.898438 L 112.023438 1143.539063 L 111.101563 1144.429688 L 110.164063 1143.371094 L 113.421875 1140.28125 L 113.421875 1154.898438 L 112.023438 1154.898438 "/>
<path style=" stroke:none;fill-rule:nonzero;fill:rgb(0.799561%,0.799561%,0.799561%);fill-opacity:1;" d="M 116.167969 1154.898438 L 116.167969 1143.539063 L 115.246094 1144.429688 L 114.308594 1143.371094 L 117.566406 1140.28125 L 117.566406 1154.898438 L 116.167969 1154.898438 "/>
<path style=" stroke:none;fill-rule:nonzero;fill:rgb(0.799561%,0.799561%,0.799561%);fill-opacity:1;" d="M 119.960938 1154.898438 L 118.449219 1154.898438 L 123.683594 1142.011719 L 119.335938 1142.011719 L 119.335938 1140.570313 L 125.78125 1140.570313 L 119.960938 1154.898438 "/>
<path style=" stroke:none;fill-rule:nonzero;fill:rgb(0.799561%,0.799561%,0.799561%);fill-opacity:1;" d="M 132.613281 1149.800781 C 132.613281 1150.480469 132.484375 1151.128906 132.21875 1151.75 C 131.953125 1152.371094 131.597656 1152.910156 131.140625 1153.378906 C 130.6875 1153.851563 130.15625 1154.21875 129.550781 1154.488281 C 128.941406 1154.761719 128.300781 1154.898438 127.625 1154.898438 L 126.664063 1154.898438 L 126.664063 1153.46875 L 127.605469 1153.46875 C 128.097656 1153.46875 128.558594 1153.378906 128.996094 1153.179688 C 129.433594 1152.980469 129.816406 1152.71875 130.148438 1152.378906 C 130.480469 1152.050781 130.738281 1151.660156 130.929688 1151.210938 C 131.121094 1150.761719 131.214844 1150.289063 131.214844 1149.800781 C 131.214844 1149.289063 131.121094 1148.820313 130.929688 1148.378906 C 130.738281 1147.929688 130.480469 1147.539063 130.15625 1147.210938 C 129.832031 1146.878906 129.453125 1146.609375 129.023438 1146.410156 C 128.59375 1146.21875 128.132813 1146.121094 127.644531 1146.121094 L 126.738281 1146.121094 L 128.214844 1140.570313 L 132.210938 1140.570313 L 132.210938 1142.011719 L 129.261719 1142.011719 L 128.527344 1144.75 C 129.105469 1144.871094 129.640625 1145.082031 130.136719 1145.390625 C 130.636719 1145.699219 131.066406 1146.082031 131.4375 1146.539063 C 131.804688 1146.988281 132.09375 1147.5 132.300781 1148.050781 C 132.511719 1148.609375 132.613281 1149.191406 132.613281 1149.800781 "/>
<path style=" stroke:none;fill-rule:nonzero;fill:rgb(0.799561%,0.799561%,0.799561%);fill-opacity:1;" d="M 139.964844 1154.898438 L 139.964844 1143.539063 L 139.042969 1144.429688 L 138.105469 1143.371094 L 141.363281 1140.28125 L 141.363281 1154.898438 L 139.964844 1154.898438 "/>
<path style=" stroke:none;fill-rule:nonzero;fill:rgb(0.799561%,0.799561%,0.799561%);fill-opacity:1;" d="M 150.664063 1144.46875 C 150.417969 1143.589844 149.972656 1142.917969 149.320313 1142.460938 C 148.667969 1142.011719 147.964844 1141.78125 147.203125 1141.78125 C 146.808594 1141.78125 146.402344 1141.859375 145.976563 1142.019531 C 145.554688 1142.167969 145.171875 1142.410156 144.824219 1142.71875 C 144.480469 1143.03125 144.199219 1143.410156 143.980469 1143.859375 C 143.757813 1144.320313 143.648438 1144.839844 143.648438 1145.441406 C 143.648438 1145.898438 143.738281 1146.359375 143.925781 1146.800781 C 144.109375 1147.238281 144.359375 1147.640625 144.679688 1147.980469 C 144.996094 1148.320313 145.375 1148.589844 145.8125 1148.800781 C 146.246094 1149.011719 146.71875 1149.109375 147.222656 1149.109375 C 147.664063 1149.109375 148.097656 1149.03125 148.519531 1148.859375 C 148.941406 1148.691406 149.324219 1148.441406 149.660156 1148.121094 C 150 1147.800781 150.273438 1147.410156 150.480469 1146.949219 C 150.6875 1146.5 150.792969 1145.988281 150.792969 1145.417969 C 150.792969 1145.089844 150.75 1144.769531 150.664063 1144.46875 Z M 147.679688 1154.898438 L 146.078125 1154.898438 L 148.621094 1150.332031 C 148.375 1150.398438 148.132813 1150.460938 147.894531 1150.488281 C 147.652344 1150.519531 147.417969 1150.539063 147.183594 1150.539063 C 146.496094 1150.539063 145.851563 1150.390625 145.25 1150.109375 C 144.648438 1149.832031 144.125 1149.449219 143.683594 1148.96875 C 143.242188 1148.5 142.894531 1147.949219 142.632813 1147.332031 C 142.375 1146.710938 142.246094 1146.070313 142.246094 1145.398438 C 142.246094 1144.621094 142.398438 1143.910156 142.699219 1143.289063 C 143 1142.660156 143.390625 1142.128906 143.867188 1141.691406 C 144.347656 1141.261719 144.882813 1140.917969 145.480469 1140.691406 C 146.074219 1140.460938 146.667969 1140.339844 147.257813 1140.339844 C 147.992188 1140.339844 148.667969 1140.480469 149.273438 1140.769531 C 149.882813 1141.070313 150.402344 1141.449219 150.832031 1141.941406 C 151.261719 1142.429688 151.59375 1142.980469 151.824219 1143.589844 C 152.058594 1144.199219 152.175781 1144.832031 152.175781 1145.46875 C 152.175781 1145.898438 152.121094 1146.332031 152.019531 1146.75 C 151.914063 1147.160156 151.753906 1147.570313 151.53125 1147.980469 L 147.679688 1154.898438 "/>
<path style=" stroke:none;fill-rule:nonzero;fill:rgb(0.799561%,0.799561%,0.799561%);fill-opacity:1;" d="M 158.070313 1145.820313 L 155.378906 1151.03125 L 158.070313 1151.03125 Z M 159.46875 1152.449219 L 159.46875 1154.898438 L 158.070313 1154.898438 L 158.070313 1152.449219 L 153.058594 1152.449219 L 159.46875 1140.109375 L 159.46875 1151.03125 L 160.019531 1151.03125 L 160.019531 1152.449219 L 159.46875 1152.449219 "/>
<path style=" stroke:none;fill-rule:nonzero;fill:rgb(0.799561%,0.799561%,0.799561%);fill-opacity:1;" d="M 165.914063 1145.820313 L 163.226563 1151.03125 L 165.914063 1151.03125 Z M 167.316406 1152.449219 L 167.316406 1154.898438 L 165.914063 1154.898438 L 165.914063 1152.449219 L 160.90625 1152.449219 L 167.316406 1140.109375 L 167.316406 1151.03125 L 167.867188 1151.03125 L 167.867188 1152.449219 L 167.316406 1152.449219 "/>
<path style=" stroke:none;fill-rule:evenodd;fill:rgb(98.799133%,81.599426%,4.299927%);fill-opacity:1;" d="M 602.636719 893.351563 C 603.292969 893.394531 603.949219 893.425781 604.613281 893.441406 C 628.960938 893.867188 649.3125 870.25 635.832031 841.71875 C 634.355469 863.808594 624.636719 875.742188 604.066406 875.742188 C 603.582031 875.742188 603.109375 875.738281 602.636719 875.722656 C 602.167969 875.738281 601.695313 875.742188 601.203125 875.742188 C 580.640625 875.742188 570.921875 863.808594 569.441406 841.71875 C 555.964844 870.25 576.316406 893.867188 600.664063 893.441406 C 601.328125 893.425781 601.984375 893.394531 602.636719 893.351563 M 602.636719 858.234375 C 603.152344 858.277344 603.679688 858.300781 604.222656 858.300781 C 622.292969 858.777344 626.125 840.472656 621.652344 829.425781 C 618.785156 840.472656 610.429688 846.085938 602.636719 844.320313 C 594.847656 846.085938 586.488281 840.472656 583.621094 829.425781 C 579.152344 840.472656 582.984375 858.777344 601.054688 858.300781 C 601.597656 858.300781 602.125 858.277344 602.636719 858.234375 M 602.636719 803.601563 C 604.625 803.523438 606.511719 803.519531 608.277344 803.59375 C 665.171875 806.089844 737.660156 825.617188 767.554688 814.03125 C 788.09375 806.066406 821.253906 781.1875 836.726563 803.050781 C 841.40625 809.671875 822.558594 826.152344 822.171875 806.660156 C 814.539063 790.964844 798.226563 814.425781 810.078125 826.882813 C 766.902344 869.585938 649.515625 820.898438 638.304688 817.734375 C 635.097656 816.828125 633.320313 820.242188 635.859375 824.773438 C 639.949219 832.085938 652.515625 842.761719 655.566406 854.015625 C 661.710938 876.683594 643.457031 913.046875 607.089844 914.054688 C 605.570313 914.097656 604.089844 914.078125 602.636719 914.003906 C 601.183594 914.078125 599.703125 914.097656 598.1875 914.054688 C 561.816406 913.046875 543.570313 876.683594 549.710938 854.015625 C 552.757813 842.761719 565.328125 832.085938 569.414063 824.773438 C 571.953125 820.242188 570.179688 816.828125 566.972656 817.734375 C 555.757813 820.898438 438.371094 869.585938 395.199219 826.882813 C 407.050781 814.425781 390.734375 790.964844 383.105469 806.660156 C 382.71875 826.152344 363.867188 809.671875 368.550781 803.050781 C 384.023438 781.1875 417.183594 806.066406 437.722656 814.03125 C 467.613281 825.617188 540.105469 806.089844 596.996094 803.59375 C 598.765625 803.519531 600.652344 803.523438 602.636719 803.601563 M 602.636719 736.167969 C 599.449219 735.710938 595.808594 737.074219 595.5625 740.179688 C 591.882813 771.132813 595.167969 766.582031 584.46875 779.5625 C 569.296875 797.980469 554.433594 796.367188 530.558594 797.695313 C 507.996094 798.949219 490.058594 800.46875 486.226563 790.75 C 484.199219 785.609375 496.820313 747.179688 531.738281 740.109375 C 544.144531 737.597656 567.074219 743.78125 567.0625 736.40625 C 567.039063 723.867188 532.652344 727.605469 521.828125 730.394531 C 483.976563 740.144531 452.023438 755.585938 422.570313 798.273438 C 478.28125 827.238281 538.140625 798.820313 601.144531 795.546875 C 601.636719 795.589844 602.140625 795.644531 602.636719 795.699219 C 603.132813 795.644531 603.636719 795.589844 604.132813 795.546875 C 667.136719 798.820313 726.992188 827.238281 782.707031 798.273438 C 753.253906 755.585938 721.300781 740.144531 683.445313 730.394531 C 672.621094 727.605469 638.234375 723.867188 638.214844 736.40625 C 638.203125 743.78125 661.128906 737.597656 673.535156 740.109375 C 708.453125 747.179688 721.074219 785.609375 719.046875 790.75 C 715.214844 800.46875 697.28125 798.949219 674.714844 797.695313 C 650.84375 796.367188 635.980469 797.980469 620.808594 779.5625 C 610.109375 766.582031 613.390625 771.132813 609.710938 740.179688 C 609.46875 737.074219 605.828125 735.710938 602.636719 736.167969 M 602.636719 551.152344 C 600.992188 550.207031 599.527344 546.890625 599.410156 541.53125 C 598.875 516.175781 592.261719 489.214844 594.820313 459.679688 C 595.855469 449.261719 599.117188 443.460938 602.636719 442.09375 C 606.15625 443.460938 609.417969 449.261719 610.457031 459.679688 C 613.015625 489.214844 606.398438 516.175781 605.863281 541.53125 C 605.75 546.890625 604.28125 550.207031 602.636719 551.152344 M 602.636719 288.316406 C 564.71875 316.816406 504.617188 323.035156 505.660156 396.496094 C 505.070313 425.613281 518.589844 441.917969 569.332031 441.429688 C 584.511719 441.28125 584.539063 493.3125 584.089844 516.15625 C 574.589844 499.941406 565.648438 488.898438 548.539063 475.957031 C 509.464844 441.824219 490.945313 434.582031 490.945313 392.855469 C 490.945313 361.121094 498.777344 351.035156 515.402344 329.761719 C 456.949219 339.273438 372.8125 389.410156 434.671875 449.945313 C 462.070313 476.578125 506.003906 455.066406 536.039063 480.226563 C 553.1875 492.679688 585.691406 530.222656 585.691406 556.015625 L 586.542969 571.210938 L 583.894531 639.347656 C 583.628906 643.339844 578.558594 642.539063 578.484375 638.945313 C 578.484375 565.34375 539.242188 513.171875 470.644531 513.171875 C 445.300781 513.171875 430.734375 518.441406 404.03125 517.382813 C 378.8125 517.699219 349.101563 497.585938 348.109375 476.320313 C 320.054688 503.277344 324.230469 568.894531 375.824219 563.484375 C 408.996094 556.484375 412.675781 524.457031 460.402344 524.457031 C 490.410156 524.269531 514.773438 524.992188 538.425781 549.683594 C 548.777344 560.492188 557.660156 570.707031 563.453125 608.0625 C 563.988281 616.628906 560.460938 616.257813 558.402344 611.589844 C 540.691406 571.453125 522.28125 561.683594 489.644531 560.304688 C 437.164063 559.984375 391.96875 637.046875 353.847656 637.046875 C 336.441406 637.046875 326.359375 630.167969 316.277344 616.496094 C 317.183594 648.441406 321.578125 678.160156 356.019531 678.464844 C 377.144531 678.777344 394.316406 652.800781 405.722656 634.105469 C 425.527344 601.65625 463.390625 563.757813 504.828125 572.347656 C 541.1875 581.890625 562.261719 620.121094 562.261719 676.550781 C 562.261719 687.816406 557.6875 707.671875 544.105469 707.671875 C 531.117188 707.671875 526.449219 704.546875 526.449219 691.851563 C 526.449219 668.496094 534.5625 613.242188 507.988281 613.242188 C 493.503906 612.675781 487.171875 621.183594 486.660156 632.242188 C 486.707031 644.484375 510.960938 654.828125 506.566406 635.734375 C 505.210938 629.84375 514.785156 627.46875 515.335938 636.367188 C 514.855469 655.53125 498.027344 653.300781 499.769531 694.597656 C 499.769531 726.347656 524.972656 719.789063 557.929688 719.980469 C 584.984375 723.21875 575.390625 752.203125 556.410156 752.296875 C 547.03125 752.675781 543.992188 747.019531 537.757813 746.144531 C 532.554688 745.421875 527.429688 746.890625 526.261719 750.636719 C 523.351563 766.304688 545.785156 770.660156 563.5625 770.660156 C 576.234375 771.320313 558.671875 781.441406 549.957031 781.710938 C 543.9375 781.894531 544.199219 788.015625 549.652344 788.152344 C 580.617188 787.28125 582.714844 766.046875 588.785156 737.484375 C 589.335938 730.089844 594.046875 726.875 602.636719 726.441406 C 611.230469 726.875 615.9375 730.089844 616.488281 737.484375 C 622.558594 766.046875 624.65625 787.28125 655.621094 788.152344 C 661.078125 788.015625 661.335938 781.894531 655.316406 781.710938 C 646.605469 781.441406 629.039063 771.320313 641.714844 770.660156 C 659.492188 770.660156 681.921875 766.304688 679.015625 750.636719 C 677.847656 746.890625 672.726563 745.421875 667.515625 746.144531 C 661.285156 747.019531 658.242188 752.675781 648.863281 752.296875 C 629.882813 752.203125 620.289063 723.21875 647.347656 719.980469 C 680.308594 719.789063 705.503906 726.347656 705.503906 694.597656 C 707.246094 653.300781 690.417969 655.53125 689.941406 636.367188 C 690.488281 627.46875 700.066406 629.84375 698.710938 635.734375 C 694.3125 654.828125 718.566406 644.484375 718.613281 632.242188 C 718.105469 621.183594 711.773438 612.675781 697.285156 613.242188 C 670.714844 613.242188 678.828125 668.496094 678.828125 691.851563 C 678.828125 704.546875 674.15625 707.671875 661.167969 707.671875 C 647.589844 707.671875 643.015625 687.816406 643.015625 676.550781 C 643.015625 620.121094 664.089844 581.890625 700.445313 572.347656 C 741.890625 563.757813 779.746094 601.65625 799.550781 634.105469 C 810.960938 652.800781 828.128906 678.777344 849.253906 678.464844 C 883.699219 678.160156 888.09375 648.441406 889 616.496094 C 878.917969 630.167969 868.835938 637.046875 851.429688 637.046875 C 813.308594 637.046875 768.109375 559.984375 715.628906 560.304688 C 682.992188 561.683594 664.585938 571.453125 646.875 611.589844 C 644.8125 616.257813 641.285156 616.628906 641.824219 608.0625 C 647.613281 570.707031 656.496094 560.492188 666.851563 549.683594 C 690.5 524.992188 714.867188 524.269531 744.875 524.457031 C 792.597656 524.457031 796.28125 556.484375 829.449219 563.484375 C 881.046875 568.894531 885.222656 503.277344 857.164063 476.320313 C 856.175781 497.585938 826.464844 517.699219 801.246094 517.382813 C 774.539063 518.441406 759.976563 513.171875 734.632813 513.171875 C 666.03125 513.171875 626.789063 565.34375 626.789063 638.945313 C 626.71875 642.539063 621.644531 643.339844 621.378906 639.347656 L 618.734375 571.210938 L 619.585938 556.015625 C 619.585938 530.222656 652.085938 492.679688 669.234375 480.226563 C 699.269531 455.066406 743.203125 476.578125 770.609375 449.945313 C 832.464844 389.410156 748.328125 339.273438 689.871094 329.761719 C 706.496094 351.035156 714.332031 361.121094 714.332031 392.855469 C 714.332031 434.582031 695.808594 441.824219 656.738281 475.957031 C 639.628906 488.898438 630.683594 499.941406 621.1875 516.15625 C 620.738281 493.3125 620.765625 441.28125 635.945313 441.429688 C 686.683594 441.917969 700.203125 425.613281 699.617188 396.496094 C 700.65625 323.035156 640.558594 316.816406 602.636719 288.316406 M 580.015625 334.414063 C 566.28125 338.226563 559.105469 360.421875 560.203125 383.511719 C 560.203125 395.734375 570.519531 411.949219 577.789063 417.011719 C 572.820313 403.636719 565.417969 371.917969 580.015625 334.414063 M 595.011719 646.898438 C 595.011719 639.691406 587.601563 638.667969 587.324219 649.507813 C 588.351563 682.46875 573.269531 681.21875 572.347656 693.960938 C 572.347656 703.378906 574.1875 710.0625 586.296875 708.789063 C 597.015625 708.789063 595.167969 688.492188 595.167969 679.097656 Z M 466.707031 477.203125 C 457.902344 491.554688 429.902344 504.308594 411.941406 504.308594 C 346.464844 504.308594 349.019531 433.414063 399.554688 399.980469 C 398.238281 448.277344 422.703125 477.070313 466.707031 477.203125 M 396.003906 571.828125 C 388.046875 603.320313 375.015625 622.980469 348.226563 622.980469 C 312.488281 619.480469 314.320313 567.847656 321.972656 547.988281 C 339.886719 580.289063 369.261719 582.414063 396.003906 571.828125 M 543.953125 684.777344 C 550.480469 684.136719 552.960938 691.039063 550.523438 695.789063 C 548.085938 700.542969 541.296875 699.988281 538.367188 695.339844 C 536.132813 691.800781 537.507813 684.976563 543.953125 684.777344 M 367.480469 724.4375 C 352.617188 724.4375 334.355469 700.832031 332.285156 686.082031 C 341.457031 690.09375 352.738281 694.4375 364.011719 692.683594 C 376.84375 690.136719 377.535156 688.867188 384.28125 679.6875 C 396.261719 698.660156 393.472656 724.4375 367.480469 724.4375 M 393.328125 756.539063 C 373.765625 762.53125 359.335938 738.414063 355.679688 731.230469 C 368.507813 739.132813 393.296875 738.742188 398.335938 724.660156 C 403.347656 738.089844 406.113281 750.515625 393.328125 756.539063 M 400.320313 781.515625 C 392.003906 780.082031 386.925781 776.277344 385.335938 770.066406 C 395.550781 771.683594 406.296875 768.652344 410.265625 760.082031 C 415.5625 769.351563 414.191406 783.910156 400.320313 781.515625 M 495.273438 754.722656 C 486.4375 763.277344 477.933594 779.3125 471.015625 789.550781 C 466.542969 796.164063 459.554688 793.855469 461.382813 790.015625 C 466.949219 778.359375 482.867188 758.542969 495.273438 754.722656 M 488.230469 749.144531 C 479.617188 757.84375 469.1875 768.070313 466.972656 770.703125 C 452.945313 787.394531 446.007813 797.140625 442.058594 787.40625 C 441.265625 785.441406 448.988281 773.859375 460.429688 765.46875 C 469.421875 758.875 477.121094 752.367188 488.230469 749.144531 M 548.519531 902.59375 C 535.335938 909.601563 501.832031 901.566406 496.882813 885.269531 C 516.355469 875.734375 525.917969 868.269531 540.53125 856.746094 C 539.996094 878.464844 542.261719 885.488281 548.519531 902.59375 M 441.652344 857.21875 C 451.433594 855.871094 474.113281 857.332031 488.507813 852.738281 C 511.910156 845.269531 524.75 843.363281 546.601563 834.179688 C 538.175781 849.980469 514.242188 864.203125 506.421875 869.519531 C 486.222656 886.867188 445.671875 885.523438 441.652344 857.21875 M 625.261719 334.414063 C 638.992188 338.226563 646.171875 360.421875 645.074219 383.511719 C 645.074219 395.734375 634.757813 411.949219 627.488281 417.011719 C 632.453125 403.636719 639.855469 371.917969 625.261719 334.414063 M 610.261719 646.898438 C 610.261719 639.691406 617.675781 638.667969 617.953125 649.507813 C 616.921875 682.46875 632.007813 681.21875 632.925781 693.960938 C 632.925781 703.378906 631.089844 710.0625 618.976563 708.789063 C 608.261719 708.789063 610.109375 688.492188 610.109375 679.097656 Z M 738.566406 477.203125 C 747.371094 491.554688 775.371094 504.308594 793.335938 504.308594 C 858.808594 504.308594 856.257813 433.414063 805.722656 399.980469 C 807.035156 448.277344 782.574219 477.070313 738.566406 477.203125 M 809.273438 571.828125 C 817.230469 603.320313 830.257813 622.980469 857.050781 622.980469 C 892.789063 619.480469 890.957031 567.847656 883.304688 547.988281 C 865.390625 580.289063 836.019531 582.414063 809.273438 571.828125 M 661.324219 684.777344 C 654.792969 684.136719 652.3125 691.039063 654.75 695.789063 C 657.191406 700.542969 663.976563 699.988281 666.910156 695.339844 C 669.140625 691.800781 667.765625 684.976563 661.324219 684.777344 M 837.796875 724.4375 C 852.65625 724.4375 870.917969 700.832031 872.996094 686.082031 C 863.820313 690.09375 852.535156 694.4375 841.265625 692.683594 C 828.433594 690.136719 827.742188 688.867188 820.992188 679.6875 C 809.011719 698.660156 811.800781 724.4375 837.796875 724.4375 M 811.945313 756.539063 C 831.511719 762.53125 845.941406 738.414063 849.597656 731.230469 C 836.769531 739.132813 811.980469 738.742188 806.941406 724.660156 C 801.929688 738.089844 799.164063 750.515625 811.945313 756.539063 M 804.953125 781.515625 C 813.273438 780.082031 818.347656 776.277344 819.941406 770.066406 C 809.726563 771.683594 798.980469 768.652344 795.007813 760.082031 C 789.714844 769.351563 791.082031 783.910156 804.953125 781.515625 M 710.003906 754.722656 C 718.84375 763.277344 727.339844 779.3125 734.265625 789.550781 C 738.734375 796.164063 745.722656 793.855469 743.890625 790.015625 C 738.324219 778.359375 722.40625 758.542969 710.003906 754.722656 M 717.046875 749.144531 C 725.65625 757.84375 736.089844 768.070313 738.304688 770.703125 C 752.328125 787.394531 759.265625 797.140625 763.21875 787.40625 C 764.011719 785.441406 756.285156 773.859375 744.847656 765.46875 C 735.855469 758.875 728.152344 752.367188 717.046875 749.144531 M 656.753906 902.59375 C 669.941406 909.601563 703.441406 901.566406 708.394531 885.269531 C 688.921875 875.734375 679.355469 868.269531 664.742188 856.746094 C 665.277344 878.464844 663.015625 885.488281 656.753906 902.59375 M 763.621094 857.21875 C 753.839844 855.871094 731.15625 857.332031 716.765625 852.738281 C 693.363281 845.269531 680.527344 843.363281 658.679688 834.179688 C 667.101563 849.980469 691.035156 864.203125 698.851563 869.519531 C 719.054688 886.867188 759.605469 885.523438 763.621094 857.21875 "/>
</g>
</svg>
